<svg xmlns="http://www.w3.org/2000/svg" width="61" height="56" fill="none" viewBox="0 0 61 56">
  <path stroke="#fff" d="M20.853 18.913H3.043c-.68 0-2.043.53-2.043 2.643C1 23.672 2.946 24.2 3.92 24.2c1.167 8.517 3.62 26.02 4.087 27.899.467 1.879 2.141 2.545 2.92 2.643 12.165.195 37.02.47 39.122 0 2.102-.47 3.017-2.154 3.212-2.937 1.167-9.202 3.62-27.663 4.087-27.898.584-.294 2.336.294 2.628-2.35.233-2.114-1.266-2.643-2.044-2.643H39.83m-18.977 0 7.591-16.738C28.541 1.783 29.086 1 30.488 1c1.401 0 1.752.783 1.752 1.175l7.59 16.738m-18.977 0h4.671m14.306 0h-4.087m0 0L30.488 8.635l-4.963 10.278m10.218 0H25.524"/>
  <rect width="5.255" height="16.445" x="15.598" y="30.954" fill="#fff" rx="2.628"/>
  <rect width="5.255" height="16.445" x="27.86" y="30.954" fill="#fff" rx="2.628"/>
  <rect width="5.255" height="16.445" x="40.122" y="30.954" fill="#fff" rx="2.628"/>
  <ellipse cx="30.313" cy="3.937" fill="#fff" rx="1.168" ry="1.175"/>
</svg>
